<svg class="sprite" xmlns="http://www.w3.org/2000/svg" xmlns:xlink="http://www.w3.org/1999/xlink"><symbol viewBox="0 0 11 10" id="arrow-top-right" xmlns="http://www.w3.org/2000/svg"><mask maskUnits="userSpaceOnUse" x="0" y="0" width="11" height="10"><path d="M.6 9.4V.6h9.8v8.8H.6Z" stroke-width="1.2"/></mask><g mask="url(#a)"><mask><path d="m9.19.868.413-.363.742.774-.412.363L9.19.868ZM1.853 8.711l-.412.363L.698 8.3l.413-.363.742.774Z"/></mask><path d="m9.19.868-.793-.9-.94.828.867.903.866-.83Zm.413-.363.866-.83-.796-.83-.863.76.793.9Zm.742.774.793.9.94-.827-.867-.904-.866.831Zm-.412.363-.866.831.796.83.863-.76-.793-.9Zm-8.08 7.069.793.9.94-.828-.867-.903-.866.83Zm-.412.363-.866.83.796.83.863-.76-.793-.9ZM.698 8.3l-.793-.9-.94.827.867.904.866-.831Zm.413-.363.866-.831-.796-.83-.863.76.793.9ZM9.19.868l.792.901.413-.363-.793-.9-.793-.901-.413.363.793.9Zm.412-.363-.866.831.742.774.866-.831.866-.83-.742-.775-.866.831Zm.742.774-.793-.9L9.14.74l.793.901.793.9.412-.362-.793-.901Zm-.412.363.866-.83-.743-.774-.866.83-.866.831.743.774.866-.83Zm-8.08 7.069L1.06 7.81l-.412.363.793.9.793.901.412-.363-.793-.9Zm-.412.363.866-.831-.743-.774-.866.831-.866.83.743.775.866-.831ZM.698 8.3l.793.9.413-.362-.793-.901-.793-.9-.413.362.793.901Zm.413-.363-.866.83.742.774.866-.83.866-.831-.742-.774-.866.83Z" mask="url(#b)"/><path d="M9.57 1.247 1.474 8.332" stroke-width="1.2" stroke-linecap="square" stroke-linejoin="round"/><mask><path d="M1.358 1.458h-.56V.405h.56v1.053Zm9.114 6.963v.537h-1.1V8.42h1.1Z"/></mask><path d="M1.358 1.458v1.2h1.2v-1.2h-1.2Zm-.56 0h-1.2v1.2h1.2v-1.2Zm0-1.053v-1.2h-1.2v1.2h1.2Zm.56 0h1.2v-1.2h-1.2v1.2Zm9.114 8.016h1.2v-1.2h-1.2v1.2Zm0 .537v1.2h1.2v-1.2h-1.2Zm-1.1 0h-1.2v1.2h1.2v-1.2Zm0-.537v-1.2h-1.2v1.2h1.2ZM1.358 1.458v-1.2h-.56v2.4h.56v-1.2Zm-.56 0h1.2V.405h-2.4v1.053h1.2Zm0-1.053v1.2h.56v-2.4h-.56v1.2Zm.56 0h-1.2v1.053h2.4V.405h-1.2Zm9.114 8.016h-1.2v.537h2.4V8.42h-1.2Zm0 .537v-1.2h-1.1v2.4h1.1v-1.2Zm-1.1 0h1.2V8.42h-2.4v.537h1.2Zm0-.537v1.2h1.1v-2.4h-1.1v1.2Z" mask="url(#c)"/><path d="M1.347.932h8.575v7.5" stroke-width="1.2" stroke-linecap="square" stroke-linejoin="round"/></g></symbol></svg>