<svg width="467" height="467" viewBox="0 0 467 467" fill="none" xmlns="http://www.w3.org/2000/svg">
<path fill-rule="evenodd" clip-rule="evenodd" d="M9.763 9.763C22.7807 -3.25433 43.886 -3.25433 56.9037 9.763L233.333 186.193L409.763 9.763C422.78 -3.25433 443.887 -3.25433 456.903 9.763C469.92 22.7807 469.92 43.886 456.903 56.9037L280.473 233.333L456.903 409.763C469.92 422.78 469.92 443.887 456.903 456.903C443.887 469.92 422.78 469.92 409.763 456.903L233.333 280.473L56.9037 456.903C43.886 469.92 22.7807 469.92 9.763 456.903C-3.25433 443.887 -3.25433 422.78 9.763 409.763L186.193 233.333L9.763 56.9037C-3.25433 43.886 -3.25433 22.7807 9.763 9.763Z" fill="#A3A1A1"/>
</svg>
