<svg width="20" height="20" viewBox="0 0 20 20" fill="none" xmlns="http://www.w3.org/2000/svg">
<path d="M0.731707 0.780487L0 1.5122L4.2439 5.7561L8.4878 10L4.2439 14.2439L0 18.4878L0.760976 19.239L1.5122 20L5.7561 15.7561L10 11.5122L14.2439 15.7561L18.4878 20L19.239 19.239L20 18.4878L15.7561 14.2439L11.5122 10L15.7561 5.7561L20 1.5122L19.239 0.760975L18.4878 0L14.2439 4.2439L10 8.4878L5.77561 4.26341C3.46341 1.95122 1.54146 0.0487804 1.5122 0.0487804C1.48293 0.0487804 1.13171 0.380487 0.731707 0.780487Z" fill="white"/>
</svg>
