<svg width="22" height="18" viewBox="0 0 22 18" fill="none" xmlns="http://www.w3.org/2000/svg">
<path d="M9.77009 0.0441217C6.99654 0.3957 4.73949 2.57895 4.30545 5.33515C4.25336 5.652 4.25336 5.66068 4.10579 5.69541C2.82535 6.0166 2.16994 6.36384 1.4364 7.09304C-0.451701 8.97246 -0.482084 12.0455 1.36695 13.9857C2.05275 14.7019 2.88178 15.175 3.88876 15.4137C4.21864 15.4918 4.44 15.5049 6.01559 15.5222C7.22658 15.5352 7.83425 15.5266 7.95578 15.4962C8.1728 15.4354 8.38114 15.214 8.44625 14.971C8.52872 14.6628 8.3768 14.3156 8.08599 14.155C7.96446 14.0899 7.73876 14.0768 6.1024 14.0551C4.32715 14.0334 4.24468 14.0291 3.95387 13.9336C2.97727 13.6124 2.25675 13.0004 1.82704 12.128C1.57096 11.6158 1.49717 11.3206 1.47112 10.7347C1.41904 9.64957 1.78364 8.76846 2.58662 8.01321C2.86875 7.74845 3.03803 7.63125 3.38527 7.46198C3.88008 7.21891 4.19694 7.13644 4.81762 7.08002C5.26469 7.03661 5.38188 6.98452 5.55116 6.75448C5.61627 6.66767 5.64665 6.53312 5.67269 6.17286C5.77687 4.80127 6.23696 3.7639 7.11807 2.88279C8.75877 1.24643 11.3283 0.986003 13.2642 2.25776C14.2017 2.8741 14.8875 3.77692 15.2304 4.83599C15.3823 5.30042 15.4301 5.56953 15.4691 6.14682C15.5038 6.58086 15.5169 6.64597 15.6297 6.7892C15.773 6.98018 15.9683 7.07133 16.2287 7.07133C16.3372 7.07133 16.5933 7.10172 16.8016 7.13644C18.1168 7.36649 19.1585 8.291 19.5665 9.5888C19.6533 9.87093 19.6664 10.0011 19.6664 10.5871C19.6664 11.2338 19.662 11.2729 19.5231 11.6722C19.1368 12.779 18.3425 13.5516 17.1923 13.9336C16.9015 14.0291 16.8233 14.0334 15.0438 14.0551C13.2859 14.0812 13.1904 14.0855 13.0471 14.1723C12.8084 14.3112 12.6999 14.5066 12.6999 14.7974C12.6999 15.1055 12.8171 15.3009 13.0905 15.4354C13.2772 15.5352 13.3119 15.5352 14.8181 15.5352C15.6601 15.5352 16.5369 15.5135 16.7669 15.4875C17.8217 15.3703 18.8156 14.9102 19.5926 14.1723C21.1161 12.7313 21.5675 10.522 20.7341 8.5905C20.1091 7.13644 18.7288 6.02962 17.1619 5.72579C16.9579 5.68673 16.9058 5.65634 16.8928 5.58255C16.8798 5.53047 16.8407 5.31779 16.806 5.11378C16.4327 3.12151 14.9917 1.33324 13.0905 0.512892C12.1009 0.0875263 10.8509 -0.0904331 9.77009 0.0441217Z" fill="#A3A1A1"/>
<path d="M10.3044 8.1255C10.2349 8.15589 9.4797 8.88074 8.62029 9.73582C7.50913 10.847 7.0447 11.3374 7.00998 11.4416C6.84504 11.9495 7.37892 12.5007 7.89977 12.3618C8.04735 12.3227 8.22965 12.1621 8.95451 11.4416L9.83562 10.5692L9.8443 14.0199C9.85732 17.3881 9.85732 17.4705 9.94413 17.6181C10.0787 17.8438 10.3608 17.9784 10.656 17.948C10.9424 17.9219 11.0857 17.8264 11.2159 17.5747L11.3114 17.3837V13.9764V10.5692L12.1925 11.4416C12.913 12.1578 13.0997 12.3227 13.2429 12.3618C13.5858 12.4486 13.9287 12.288 14.0849 11.9625C14.1978 11.7324 14.1978 11.5718 14.0936 11.3461C13.9808 11.1074 11.09 8.22968 10.8687 8.13418C10.6777 8.05606 10.4693 8.05172 10.3044 8.1255Z" fill="#A3A1A1"/>
</svg>
