<svg width="1360" height="201" viewBox="0 0 1360 201" fill="none" xmlns="http://www.w3.org/2000/svg">
<path opacity="0.23" d="M223.68 79.6798C223.68 108.693 216.64 130.133 202.56 144C188.693 157.866 167.467 164.8 138.88 164.8H48.32V220.8H3.50475e-05V-0.000213623H138.24C168.533 -0.000213623 190.293 6.18646 203.52 18.5598C216.96 30.7198 223.68 51.0931 223.68 79.6798ZM129.6 37.7598H48.32V127.04H130.24C145.387 127.04 156.587 123.52 163.84 116.48C171.093 109.226 174.72 97.0665 174.72 79.9998C174.72 63.3598 171.52 52.1598 165.12 46.3998C158.72 40.6398 146.88 37.7598 129.6 37.7598ZM367.953 120V151.04H242.513V120H367.953ZM566.54 106.56V109.12C600.46 112.96 617.42 129.706 617.42 159.36C617.42 180.266 610.807 195.733 597.58 205.76C584.353 215.786 564.087 220.8 536.78 220.8H394.7V-0.000213623H531.66C559.607 -0.000213623 579.66 4.58646 591.82 13.7598C604.193 22.9331 610.38 38.1865 610.38 59.5198C610.38 71.8931 606.433 82.1331 598.54 90.2398C590.647 98.3465 579.98 103.786 566.54 106.56ZM526.54 126.08H443.02V183.36H527.18C541.687 183.36 552.247 181.226 558.86 176.96C565.687 172.693 569.1 165.333 569.1 154.88C569.1 143.786 566.007 136.213 559.82 132.16C553.847 128.106 542.753 126.08 526.54 126.08ZM521.74 37.4398H443.02V92.7998H522.38C536.033 92.7998 546.06 90.6665 552.46 86.3998C558.86 81.9198 562.06 74.3465 562.06 63.6798C562.06 53.4398 559.18 46.5065 553.42 42.8798C547.66 39.2531 537.1 37.4398 521.74 37.4398ZM840.74 182.4V220.8H643.3V-0.000213623H840.42V38.3998H691.62V90.8798H837.86V128.64H691.62V182.4H840.74ZM918.033 -0.000213623V90.2398H1053.71V-0.000213623H1102.03V220.8H1053.71V130.24H918.033V220.8H869.713V-0.000213623H918.033ZM1359.19 -0.000213623V40.3198H1262.87V220.8H1214.55V40.3198H1118.55V-0.000213623H1359.19Z" fill="white" fill-opacity="0.4"/>
</svg>
