<svg width="11" height="10" viewBox="0 0 11 10" fill="none" xmlns="http://www.w3.org/2000/svg">
<mask id="mask0_205_204" style="mask-type:luminance" maskUnits="userSpaceOnUse" x="0" y="0" width="11" height="10">
<path d="M0.599609 9.40039L0.599609 0.599609L10.4004 0.599609L10.4004 9.40039L0.599609 9.40039Z" fill="white" stroke="white" stroke-width="1.2"/>
</mask>
<g mask="url(#mask0_205_204)">
<mask id="path-2-inside-1_205_204" fill="white">
<path d="M9.19024 0.86843L9.60274 0.505272L10.3452 1.27896L9.93274 1.64211L9.19024 0.86843ZM1.85324 8.71054L1.44074 9.07369L0.698242 8.30001L1.11074 7.93685L1.85324 8.71054Z"/>
</mask>
<path d="M9.19024 0.86843L8.39729 -0.0322554L7.45706 0.795513L8.32444 1.69933L9.19024 0.86843ZM9.60274 0.505272L10.4685 -0.325628L9.67259 -1.15501L8.80979 -0.395413L9.60274 0.505272ZM10.3452 1.27896L11.1382 2.17964L12.0784 1.35187L11.211 0.448056L10.3452 1.27896ZM9.93274 1.64211L9.06695 2.47301L9.86289 3.30239L10.7257 2.5428L9.93274 1.64211ZM1.85324 8.71054L2.64619 9.61122L3.58643 8.78345L2.71904 7.87963L1.85324 8.71054ZM1.44074 9.07369L0.574945 9.90459L1.37089 10.734L2.23369 9.97438L1.44074 9.07369ZM0.698242 8.30001L-0.0947059 7.39932L-1.03494 8.22709L-0.167555 9.13091L0.698242 8.30001ZM1.11074 7.93685L1.97654 7.10595L1.18059 6.27657L0.317794 7.03617L1.11074 7.93685ZM9.19024 0.86843L9.98319 1.76912L10.3957 1.40596L9.60274 0.505272L8.80979 -0.395413L8.39729 -0.0322554L9.19024 0.86843ZM9.60274 0.505272L8.73694 1.33617L9.47944 2.10986L10.3452 1.27896L11.211 0.448056L10.4685 -0.325628L9.60274 0.505272ZM10.3452 1.27896L9.55229 0.378271L9.13979 0.741429L9.93274 1.64211L10.7257 2.5428L11.1382 2.17964L10.3452 1.27896ZM9.93274 1.64211L10.7985 0.811214L10.056 0.0375294L9.19024 0.86843L8.32444 1.69933L9.06695 2.47301L9.93274 1.64211ZM1.85324 8.71054L1.06029 7.80985L0.647793 8.17301L1.44074 9.07369L2.23369 9.97438L2.64619 9.61122L1.85324 8.71054ZM1.44074 9.07369L2.30654 8.24279L1.56404 7.46911L0.698242 8.30001L-0.167555 9.13091L0.574945 9.90459L1.44074 9.07369ZM0.698242 8.30001L1.49119 9.20069L1.90369 8.83754L1.11074 7.93685L0.317794 7.03617L-0.0947059 7.39932L0.698242 8.30001ZM1.11074 7.93685L0.244945 8.76775L0.987445 9.54144L1.85324 8.71054L2.71904 7.87963L1.97654 7.10595L1.11074 7.93685Z" fill="white" mask="url(#path-2-inside-1_205_204)"/>
<path d="M9.56998 1.24737L1.47398 8.33158" stroke="white" stroke-width="1.2" stroke-linecap="square" stroke-linejoin="round"/>
<mask id="path-5-inside-2_205_204" fill="white">
<path d="M1.35824 1.4579H0.797241V0.405273H1.35824V1.4579ZM10.4717 8.42106V8.9579H9.37174V8.42106H10.4717Z"/>
</mask>
<path d="M1.35824 1.4579V2.65791H2.55824V1.4579H1.35824ZM0.797241 1.4579H-0.402759V2.65791H0.797241V1.4579ZM0.797241 0.405273V-0.794727H-0.402759V0.405273H0.797241ZM1.35824 0.405273H2.55824V-0.794727H1.35824V0.405273ZM10.4717 8.42106H11.6717V7.22106H10.4717V8.42106ZM10.4717 8.9579V10.1579H11.6717V8.9579H10.4717ZM9.37174 8.9579H8.17174V10.1579H9.37174V8.9579ZM9.37174 8.42106V7.22106H8.17174V8.42106H9.37174ZM1.35824 1.4579V0.257905H0.797241V1.4579V2.65791H1.35824V1.4579ZM0.797241 1.4579H1.99724V0.405273H0.797241H-0.402759V1.4579H0.797241ZM0.797241 0.405273V1.60527H1.35824V0.405273V-0.794727H0.797241V0.405273ZM1.35824 0.405273H0.158241V1.4579H1.35824H2.55824V0.405273H1.35824ZM10.4717 8.42106H9.27174V8.9579H10.4717H11.6717V8.42106H10.4717ZM10.4717 8.9579V7.7579H9.37174V8.9579V10.1579H10.4717V8.9579ZM9.37174 8.9579H10.5717V8.42106H9.37174H8.17174V8.9579H9.37174ZM9.37174 8.42106V9.62106H10.4717V8.42106V7.22106H9.37174V8.42106Z" fill="white" mask="url(#path-5-inside-2_205_204)"/>
<path d="M1.34724 0.931591H9.92175V8.43159" stroke="white" stroke-width="1.2" stroke-linecap="square" stroke-linejoin="round"/>
</g>
</svg>
