<svg width="233" height="69" viewBox="0 0 233 69" fill="none" xmlns="http://www.w3.org/2000/svg">
<path d="M29 61.3911L56.915 56.5289V48.8518M70.551 56.5289V66.6372C65.5769 64.1635 50.3029 59.651 29 61.3911V48.0841M29 30.9384V15.9679L56.915 1.63721V12.7691M29 30.9384L56.915 20.3183M29 30.9384V48.0841M56.915 20.3183V12.7691M56.915 20.3183V30.9384M29 48.0841L56.915 39.3833M56.915 39.3833V30.9384M56.915 39.3833V48.8518M56.915 12.7691L70.551 6.62736V26.46M56.915 30.9384L70.551 26.46M70.551 26.46V44.8852M56.915 48.8518L70.551 44.8852M70.551 44.8852V56.5289M70.551 56.5289L82 53.9699V11.6175L70.9369 16.0959" stroke="white" stroke-width="2"/>
<path d="M28.5 24.7681C14.5724 29.6262 5.74237 25.6768 2.10938 22.3071C3.34096 22.8333 4.72965 23.1788 6.20508 23.3823C8.77159 23.7364 11.6454 23.6734 14.5029 23.3745C19.8438 22.8159 25.1918 21.4269 28.5 20.3335V24.7681Z" fill="white" stroke="white"/>
<path d="M28.5 35.2856C20.0489 37.8409 13.4588 37.2935 8.77441 35.7476C5.75019 34.7494 3.52952 33.3391 2.10645 32.0835C3.34127 32.5441 4.73457 32.8438 6.21484 33.0181C8.7748 33.3194 11.6435 33.2559 14.498 32.9878C19.8435 32.4857 25.1968 31.2589 28.5 30.3052V35.2856Z" fill="white" stroke="white"/>
<path d="M28.5 45.3354C14.5185 49.5457 5.71084 45.1241 2.08691 41.8228C3.32512 42.3088 4.72336 42.6463 6.20996 42.8647C8.76668 43.2404 11.6294 43.2756 14.4805 43.105C19.821 42.7853 25.1748 41.7381 28.5 40.8022V45.3354Z" fill="white" stroke="white"/>
<path d="M10.1067 64.5957C10.0706 64.6096 10.0351 64.6234 10 64.6372C10.0347 64.6233 10.0702 64.6095 10.1067 64.5957C14.2603 62.9961 24.9941 60.6372 30 60.6372L44.5 61.6372C40.4983 61.9632 15.4961 62.5614 10.1067 64.5957Z" fill="white"/>
<path d="M100.621 34.8797V14.6372H107.356C108.92 14.6372 110.198 14.9238 111.19 15.4971C112.19 16.0638 112.929 16.8315 113.409 17.8001C113.89 18.7687 114.13 19.8494 114.13 21.0421C114.13 22.2347 113.89 23.3187 113.409 24.2939C112.936 25.2691 112.203 26.0467 111.21 26.6265C110.217 27.1998 108.946 27.4864 107.395 27.4864H102.568V25.312H107.317C108.388 25.312 109.247 25.1242 109.896 24.7486C110.545 24.373 111.015 23.8656 111.307 23.2264C111.606 22.5807 111.755 21.8525 111.755 21.0421C111.755 20.2316 111.606 19.5067 111.307 18.8676C111.015 18.2284 110.542 17.7276 109.886 17.3652C109.231 16.9962 108.362 16.8117 107.278 16.8117H103.035V34.8797H100.621Z" fill="white"/>
<path d="M129.671 23.6712V25.8457H120.951V23.6712H129.671Z" fill="white"/>
<path d="M138.683 34.8797V14.6372H145.651C147.04 14.6372 148.185 14.881 149.086 15.3686C149.988 15.8496 150.66 16.4987 151.101 17.3158C151.542 18.1263 151.763 19.0257 151.763 20.0141C151.763 20.8839 151.61 21.6022 151.305 22.1688C151.007 22.7355 150.611 23.1836 150.118 23.5131C149.631 23.8425 149.103 24.0863 148.532 24.2445V24.4422C149.142 24.4817 149.755 24.6991 150.371 25.0945C150.987 25.4899 151.503 26.0566 151.919 26.7946C152.334 27.5326 152.541 28.4353 152.541 29.5028C152.541 30.5175 152.314 31.4302 151.86 32.2407C151.406 33.0512 150.689 33.6936 149.709 34.168C148.73 34.6425 147.455 34.8797 145.885 34.8797H138.683ZM141.096 32.7052H145.885C147.461 32.7052 148.58 32.3955 149.242 31.7761C149.91 31.1501 150.245 30.3923 150.245 29.5028C150.245 28.8175 150.073 28.1849 149.729 27.6051C149.385 27.0186 148.895 26.5508 148.259 26.2015C147.623 25.8457 146.871 25.6678 146.001 25.6678H141.096V32.7052ZM141.096 23.5328H145.573C146.3 23.5328 146.955 23.3879 147.539 23.0979C148.13 22.808 148.597 22.3995 148.941 21.8723C149.291 21.3452 149.466 20.7258 149.466 20.0141C149.466 19.1246 149.161 18.3701 148.551 17.7507C147.941 17.1247 146.975 16.8117 145.651 16.8117H141.096V23.5328Z" fill="white"/>
<path d="M161.166 34.8797V14.6372H173.195V16.8117H163.58V23.6514H172.572V25.8259H163.58V32.7052H173.351V34.8797H161.166Z" fill="white"/>
<path d="M182.204 34.8797V14.6372H184.618V23.6514H195.245V14.6372H197.659V34.8797H195.245V25.8259H184.618V34.8797H182.204Z" fill="white"/>
<path d="M206.059 16.8117V14.6372H221.008V16.8117H214.74V34.8797H212.327V16.8117H206.059Z" fill="white"/>
<path d="M93 52.7395V45.992H95.433C95.9045 45.992 96.2948 46.071 96.6041 46.2292C96.9134 46.3851 97.1448 46.5971 97.2983 46.8651C97.4519 47.1308 97.5286 47.4307 97.5286 47.7645C97.5286 48.0457 97.4778 48.2829 97.3762 48.4762C97.2745 48.6673 97.1383 48.821 96.9674 48.9374C96.7987 49.0516 96.6128 49.1351 96.4095 49.1878V49.2537C96.6301 49.2647 96.8452 49.3372 97.055 49.4712C97.267 49.6029 97.4421 49.7907 97.5805 50.0345C97.719 50.2783 97.7882 50.5749 97.7882 50.9241C97.7882 51.269 97.7081 51.5786 97.5481 51.8532C97.3902 52.1256 97.1459 52.3419 96.815 52.5023C96.4841 52.6604 96.0613 52.7395 95.5466 52.7395H93ZM94.0024 51.8664H95.4492C95.9293 51.8664 96.2732 51.7719 96.4808 51.583C96.6884 51.3941 96.7923 51.158 96.7923 50.8747C96.7923 50.6616 96.7393 50.4661 96.6333 50.2882C96.5273 50.1103 96.3759 49.9687 96.1791 49.8632C95.9845 49.7578 95.7531 49.7051 95.4849 49.7051H94.0024V51.8664ZM94.0024 48.9111H95.3454C95.5703 48.9111 95.7726 48.8671 95.9521 48.7793C96.1337 48.6914 96.2775 48.5684 96.3835 48.4103C96.4916 48.2499 96.5457 48.061 96.5457 47.8436C96.5457 47.5646 96.4495 47.3307 96.257 47.1418C96.0645 46.9529 95.7693 46.8585 95.3714 46.8585H94.0024V48.9111Z" fill="white"/>
<path d="M102.417 52.8416C101.926 52.8416 101.503 52.7351 101.149 52.522C100.796 52.3068 100.524 52.0048 100.331 51.616C100.141 51.225 100.046 50.7671 100.046 50.2421C100.046 49.7237 100.141 49.2669 100.331 48.8715C100.524 48.4762 100.792 48.1676 101.136 47.9457C101.482 47.7239 101.886 47.613 102.349 47.613C102.63 47.613 102.903 47.6602 103.166 47.7546C103.43 47.8491 103.667 47.9973 103.877 48.1994C104.087 48.4015 104.252 48.664 104.373 48.9868C104.494 49.3075 104.555 49.6974 104.555 50.1564V50.5057H100.594V49.7677H103.604C103.604 49.5085 103.552 49.279 103.449 49.0791C103.345 48.877 103.199 48.7178 103.011 48.6014C102.825 48.4849 102.606 48.4267 102.355 48.4267C102.083 48.4267 101.845 48.4948 101.642 48.631C101.441 48.765 101.285 48.9407 101.175 49.1582C101.066 49.3734 101.012 49.6073 101.012 49.8599V50.4365C101.012 50.7747 101.071 51.0625 101.188 51.2997C101.307 51.5369 101.472 51.7181 101.684 51.8433C101.896 51.9663 102.143 52.0278 102.427 52.0278C102.611 52.0278 102.778 52.0015 102.93 51.9487C103.081 51.8938 103.212 51.8126 103.322 51.7049C103.432 51.5973 103.517 51.4644 103.575 51.3063L104.493 51.4743C104.42 51.7489 104.288 51.9894 104.097 52.1959C103.909 52.4001 103.672 52.5594 103.387 52.6736C103.104 52.7856 102.78 52.8416 102.417 52.8416Z" fill="white"/>
<path d="M110.378 49.7841V50.6375H107.679V49.7841H110.378ZM107.952 47.6789V52.7395H107.001V47.6789H107.952ZM111.056 47.6789V52.7395H110.109V47.6789H111.056Z" fill="white"/>
<path d="M113.106 48.5289V47.6789H117.31V48.5289H115.685V52.7395H114.738V48.5289H113.106Z" fill="white"/>
<path d="M120.657 51.359L122.853 47.6789H123.898V52.7395H122.947V49.056L120.761 52.7395H119.707V47.6789H120.657V51.359Z" fill="white"/>
<path d="M126.18 52.7395L126.177 51.8862H126.355C126.493 51.8862 126.609 51.8565 126.702 51.7972C126.797 51.7357 126.875 51.6325 126.936 51.4875C126.996 51.3425 127.043 51.1427 127.075 50.8879C127.108 50.6309 127.131 50.308 127.146 49.9192L127.234 47.6789H130.712V52.7395H129.761V48.5289H128.133L128.055 50.2487C128.035 50.666 127.993 51.0306 127.928 51.3425C127.866 51.6544 127.774 51.9147 127.653 52.1234C127.531 52.3298 127.376 52.4847 127.185 52.5879C126.995 52.689 126.764 52.7395 126.491 52.7395H126.18Z" fill="white"/>
<path d="M134.326 51.359L136.522 47.6789H137.567V52.7395H136.616V49.056L134.43 52.7395H133.375V47.6789H134.326V51.359Z" fill="white"/>
<path d="M140.241 54.6372V47.6789H141.188V48.4992H141.269C141.326 48.3938 141.407 48.2719 141.513 48.1335C141.619 47.9951 141.766 47.8743 141.954 47.7711C142.142 47.6657 142.391 47.613 142.7 47.613C143.102 47.613 143.461 47.7162 143.777 47.9227C144.093 48.1291 144.34 48.4267 144.52 48.8155C144.702 49.2043 144.792 49.6721 144.792 50.219C144.792 50.766 144.703 51.2349 144.523 51.6259C144.344 52.0146 144.097 52.3145 143.784 52.5253C143.47 52.734 143.112 52.8383 142.71 52.8383C142.407 52.8383 142.159 52.7867 141.967 52.6835C141.777 52.5802 141.627 52.4594 141.519 52.321C141.411 52.1827 141.328 52.0597 141.269 51.952H141.211V54.6372H140.241ZM141.192 50.2092C141.192 50.565 141.242 50.8769 141.344 51.1449C141.446 51.4128 141.593 51.6226 141.785 51.7741C141.978 51.9235 142.213 51.9982 142.492 51.9982C142.782 51.9982 143.024 51.9202 143.219 51.7643C143.414 51.6061 143.561 51.392 143.66 51.1218C143.762 50.8516 143.813 50.5474 143.813 50.2092C143.813 49.8753 143.763 49.5755 143.664 49.3097C143.566 49.0439 143.419 48.8342 143.222 48.6804C143.028 48.5267 142.784 48.4498 142.492 48.4498C142.211 48.4498 141.973 48.5234 141.779 48.6705C141.586 48.8177 141.44 49.0231 141.341 49.2867C141.241 49.5502 141.192 49.8577 141.192 50.2092Z" fill="white"/>
<path d="M147.693 54.6372C147.548 54.6372 147.416 54.6251 147.297 54.601C147.178 54.579 147.09 54.5548 147.031 54.5285L147.265 53.7213C147.442 53.7696 147.6 53.7905 147.739 53.7839C147.877 53.7773 147.999 53.7246 148.105 53.6257C148.213 53.5269 148.308 53.3655 148.391 53.1414L148.511 52.8054L146.687 47.6789H147.726L148.987 51.6061H149.039L150.301 47.6789H151.343L149.289 53.4149C149.194 53.6785 149.073 53.9014 148.926 54.0837C148.779 54.2682 148.604 54.4066 148.4 54.4988C148.197 54.5911 147.961 54.6372 147.693 54.6372Z" fill="white"/>
<path d="M155.603 52.8416C155.112 52.8416 154.689 52.7351 154.334 52.522C153.982 52.3068 153.709 52.0048 153.517 51.616C153.326 51.225 153.231 50.7671 153.231 50.2421C153.231 49.7237 153.326 49.2669 153.517 48.8715C153.709 48.4762 153.977 48.1676 154.321 47.9457C154.667 47.7239 155.072 47.613 155.534 47.613C155.816 47.613 156.088 47.6602 156.352 47.7546C156.616 47.8491 156.853 47.9973 157.062 48.1994C157.272 48.4015 157.438 48.664 157.559 48.9868C157.68 49.3075 157.74 49.6974 157.74 50.1564V50.5057H153.779V49.7677H156.79C156.79 49.5085 156.738 49.279 156.634 49.0791C156.53 48.877 156.384 48.7178 156.196 48.6014C156.01 48.4849 155.792 48.4267 155.541 48.4267C155.268 48.4267 155.03 48.4948 154.827 48.631C154.626 48.765 154.47 48.9407 154.36 49.1582C154.252 49.3734 154.198 49.6073 154.198 49.8599V50.4365C154.198 50.7747 154.256 51.0625 154.373 51.2997C154.492 51.5369 154.657 51.7181 154.869 51.8433C155.081 51.9663 155.329 52.0278 155.612 52.0278C155.796 52.0278 155.964 52.0015 156.115 51.9487C156.266 51.8938 156.397 51.8126 156.508 51.7049C156.618 51.5973 156.702 51.4644 156.761 51.3063L157.679 51.4743C157.605 51.7489 157.473 51.9894 157.283 52.1959C157.095 52.4001 156.858 52.5594 156.572 52.6736C156.289 52.7856 155.966 52.8416 155.603 52.8416Z" fill="white"/>
<path d="M162.983 51.5204L164.592 47.6789H165.429L163.343 52.7395H162.623L160.579 47.6789H161.407L162.983 51.5204ZM161.137 47.6789V52.7395H160.187V47.6789H161.137ZM164.855 52.7395V47.6789H165.799V52.7395H164.855Z" fill="white"/>
<path d="M169.192 49.4184H170.639C171.249 49.4184 171.718 49.5722 172.047 49.8797C172.375 50.1872 172.54 50.5837 172.54 51.0691C172.54 51.3854 172.466 51.6698 172.319 51.9224C172.172 52.175 171.957 52.3749 171.674 52.522C171.39 52.667 171.045 52.7395 170.639 52.7395H168.462V47.6789H169.412V51.8894H170.639C170.918 51.8894 171.147 51.8159 171.326 51.6687C171.506 51.5193 171.596 51.3294 171.596 51.0987C171.596 50.8549 171.506 50.6561 171.326 50.5024C171.147 50.3464 170.918 50.2685 170.639 50.2685H169.192V49.4184ZM173.247 52.7395V47.6789H174.217V52.7395H173.247Z" fill="white"/>
<path d="M179.036 52.8416C178.545 52.8416 178.123 52.7351 177.768 52.522C177.415 52.3068 177.143 52.0048 176.95 51.616C176.76 51.225 176.665 50.7671 176.665 50.2421C176.665 49.7237 176.76 49.2669 176.95 48.8715C177.143 48.4762 177.411 48.1676 177.755 47.9457C178.101 47.7239 178.505 47.613 178.968 47.613C179.249 47.613 179.522 47.6602 179.786 47.7546C180.05 47.8491 180.286 47.9973 180.496 48.1994C180.706 48.4015 180.871 48.664 180.992 48.9868C181.114 49.3075 181.174 49.6974 181.174 50.1564V50.5057H177.213V49.7677H180.224C180.224 49.5085 180.172 49.279 180.068 49.0791C179.964 48.877 179.818 48.7178 179.63 48.6014C179.444 48.4849 179.226 48.4267 178.975 48.4267C178.702 48.4267 178.464 48.4948 178.261 48.631C178.06 48.765 177.904 48.9407 177.794 49.1582C177.686 49.3734 177.632 49.6073 177.632 49.8599V50.4365C177.632 50.7747 177.69 51.0625 177.807 51.2997C177.926 51.5369 178.091 51.7181 178.303 51.8433C178.515 51.9663 178.763 52.0278 179.046 52.0278C179.23 52.0278 179.397 52.0015 179.549 51.9487C179.7 51.8938 179.831 51.8126 179.941 51.7049C180.052 51.5973 180.136 51.4644 180.194 51.3063L181.112 51.4743C181.039 51.7489 180.907 51.9894 180.717 52.1959C180.529 52.4001 180.292 52.5594 180.006 52.6736C179.723 52.7856 179.4 52.8416 179.036 52.8416Z" fill="white"/>
<path d="M189.553 54.4626V45.992H190.523V54.4626H189.553ZM189.553 52.8416C189.2 52.8416 188.879 52.7801 188.589 52.6571C188.299 52.5319 188.05 52.354 187.84 52.1234C187.63 51.8927 187.468 51.6171 187.353 51.2964C187.241 50.9757 187.185 50.621 187.185 50.2322C187.185 49.8391 187.241 49.4821 187.353 49.1615C187.468 48.8408 187.63 48.5651 187.84 48.3345C188.05 48.1039 188.299 47.926 188.589 47.8008C188.879 47.6756 189.2 47.613 189.553 47.613H189.793V52.8416H189.553ZM189.553 52.0114H189.689V48.4432H189.553C189.319 48.4432 189.116 48.4915 188.943 48.5882C188.77 48.6826 188.626 48.8133 188.511 48.9802C188.397 49.145 188.31 49.335 188.252 49.5502C188.196 49.7655 188.168 49.9928 188.168 50.2322C188.168 50.5529 188.218 50.8483 188.32 51.1185C188.422 51.3865 188.575 51.6028 188.781 51.7675C188.986 51.9301 189.243 52.0114 189.553 52.0114ZM190.523 52.8416H190.279V47.613H190.523C190.875 47.613 191.196 47.6756 191.486 47.8008C191.776 47.926 192.025 48.1039 192.232 48.3345C192.442 48.5651 192.603 48.8408 192.716 49.1615C192.83 49.4821 192.888 49.8391 192.888 50.2322C192.888 50.621 192.83 50.9757 192.716 51.2964C192.603 51.6171 192.442 51.8927 192.232 52.1234C192.025 52.354 191.776 52.5319 191.486 52.6571C191.196 52.7801 190.875 52.8416 190.523 52.8416ZM190.523 52.0114C190.756 52.0114 190.96 51.9652 191.133 51.873C191.306 51.7785 191.449 51.6489 191.564 51.4842C191.679 51.3173 191.764 51.1273 191.82 50.9142C191.877 50.699 191.905 50.4716 191.905 50.2322C191.905 49.9137 191.854 49.6194 191.752 49.3493C191.653 49.0769 191.5 48.8583 191.295 48.6936C191.089 48.5267 190.832 48.4432 190.523 48.4432H190.383V52.0114H190.523Z" fill="white"/>
<path d="M196.786 52.8515C196.47 52.8515 196.185 52.7922 195.929 52.6736C195.674 52.5528 195.472 52.3782 195.323 52.1497C195.176 51.9213 195.102 51.6412 195.102 51.3096C195.102 51.024 195.156 50.789 195.264 50.6045C195.372 50.42 195.518 50.274 195.702 50.1663C195.886 50.0587 196.092 49.9774 196.319 49.9225C196.546 49.8676 196.777 49.8259 197.013 49.7973C197.311 49.7622 197.554 49.7336 197.74 49.7117C197.925 49.6875 198.061 49.6491 198.145 49.5964C198.229 49.5436 198.272 49.458 198.272 49.3394V49.3163C198.272 49.0286 198.192 48.8056 198.031 48.6475C197.874 48.4893 197.638 48.4103 197.324 48.4103C196.998 48.4103 196.74 48.4839 196.552 48.631C196.366 48.776 196.238 48.9374 196.166 49.1153L195.255 48.9045C195.363 48.597 195.521 48.3488 195.728 48.1599C195.938 47.9688 196.179 47.8304 196.452 47.7447C196.724 47.6569 197.011 47.613 197.311 47.613C197.51 47.613 197.721 47.6371 197.944 47.6854C198.169 47.7316 198.379 47.8172 198.573 47.9424C198.77 48.0676 198.931 48.2466 199.057 48.4795C199.182 48.7101 199.245 49.0099 199.245 49.3789V52.7395H198.297V52.0476H198.259C198.196 52.175 198.102 52.3002 197.976 52.4232C197.851 52.5462 197.69 52.6483 197.493 52.7296C197.296 52.8109 197.06 52.8515 196.786 52.8515ZM196.997 52.0608C197.265 52.0608 197.494 52.007 197.684 51.8993C197.877 51.7917 198.023 51.6511 198.122 51.4776C198.224 51.3019 198.275 51.1141 198.275 50.9142V50.2619C198.24 50.297 198.173 50.33 198.074 50.3607C197.976 50.3893 197.865 50.4145 197.74 50.4365C197.614 50.4563 197.492 50.4749 197.373 50.4925C197.254 50.5079 197.155 50.5211 197.074 50.532C196.886 50.5562 196.714 50.5968 196.559 50.6539C196.405 50.7111 196.282 50.7934 196.189 50.901C196.098 51.0065 196.053 51.147 196.053 51.3228C196.053 51.5666 196.141 51.7511 196.319 51.8763C196.496 51.9993 196.722 52.0608 196.997 52.0608Z" fill="white"/>
<path d="M204.006 52.8416C203.524 52.8416 203.108 52.7307 202.76 52.5088C202.414 52.2848 202.148 51.9762 201.962 51.583C201.776 51.1899 201.683 50.7396 201.683 50.2322C201.683 49.7183 201.778 49.2647 201.969 48.8715C202.159 48.4762 202.427 48.1676 202.773 47.9457C203.119 47.7239 203.527 47.613 203.996 47.613C204.375 47.613 204.712 47.6843 205.008 47.8271C205.304 47.9677 205.543 48.1654 205.725 48.4202C205.909 48.6749 206.018 48.9726 206.053 49.313H205.109C205.057 49.0758 204.938 48.8715 204.752 48.7002C204.568 48.5289 204.322 48.4432 204.012 48.4432C203.742 48.4432 203.505 48.5157 203.302 48.6607C203.101 48.8034 202.944 49.0077 202.831 49.2735C202.719 49.537 202.663 49.8489 202.663 50.2092C202.663 50.5782 202.718 50.8967 202.828 51.1646C202.939 51.4326 203.094 51.6402 203.295 51.7873C203.499 51.9345 203.738 52.0081 204.012 52.0081C204.196 52.0081 204.363 51.974 204.512 51.9059C204.663 51.8356 204.79 51.7357 204.891 51.6061C204.995 51.4765 205.068 51.3206 205.109 51.1383H206.053C206.018 51.4655 205.913 51.7577 205.738 52.0146C205.563 52.2716 205.328 52.4737 205.034 52.6209C204.742 52.768 204.399 52.8416 204.006 52.8416Z" fill="white"/>
<path d="M209.91 52.8515C209.595 52.8515 209.309 52.7922 209.054 52.6736C208.799 52.5528 208.597 52.3782 208.447 52.1497C208.3 51.9213 208.227 51.6412 208.227 51.3096C208.227 51.024 208.281 50.789 208.389 50.6045C208.497 50.42 208.643 50.274 208.827 50.1663C209.011 50.0587 209.216 49.9774 209.443 49.9225C209.67 49.8676 209.902 49.8259 210.137 49.7973C210.436 49.7622 210.678 49.7336 210.864 49.7117C211.05 49.6875 211.185 49.6491 211.27 49.5964C211.354 49.5436 211.396 49.458 211.396 49.3394V49.3163C211.396 49.0286 211.316 48.8056 211.156 48.6475C210.998 48.4893 210.762 48.4103 210.449 48.4103C210.122 48.4103 209.865 48.4839 209.677 48.631C209.491 48.776 209.362 48.9374 209.291 49.1153L208.379 48.9045C208.487 48.597 208.645 48.3488 208.853 48.1599C209.063 47.9688 209.304 47.8304 209.576 47.7447C209.849 47.6569 210.135 47.613 210.436 47.613C210.635 47.613 210.846 47.6371 211.069 47.6854C211.293 47.7316 211.503 47.8172 211.698 47.9424C211.895 48.0676 212.056 48.2466 212.181 48.4795C212.307 48.7101 212.369 49.0099 212.369 49.3789V52.7395H211.422V52.0476H211.383C211.32 52.175 211.226 52.3002 211.101 52.4232C210.976 52.5462 210.814 52.6483 210.618 52.7296C210.421 52.8109 210.185 52.8515 209.91 52.8515ZM210.121 52.0608C210.389 52.0608 210.619 52.007 210.809 51.8993C211.001 51.7917 211.147 51.6511 211.247 51.4776C211.349 51.3019 211.399 51.1141 211.399 50.9142V50.2619C211.365 50.297 211.298 50.33 211.198 50.3607C211.101 50.3893 210.99 50.4145 210.864 50.4365C210.739 50.4563 210.617 50.4749 210.498 50.4925C210.379 50.5079 210.279 50.5211 210.199 50.532C210.011 50.5562 209.839 50.5968 209.683 50.6539C209.53 50.7111 209.406 50.7934 209.314 50.901C209.223 51.0065 209.177 51.147 209.177 51.3228C209.177 51.5666 209.266 51.7511 209.443 51.8763C209.621 51.9993 209.847 52.0608 210.121 52.0608Z" fill="white"/>
<path d="M214.545 54.199V51.8862H214.95C215.054 51.7895 215.142 51.6742 215.213 51.5402C215.287 51.4062 215.348 51.247 215.398 51.0625C215.45 50.878 215.493 50.6627 215.528 50.4167C215.563 50.1685 215.593 49.8852 215.619 49.5667L215.774 47.6789H219.161V51.8862H219.927V54.199H218.98V52.7395H215.505V54.199H214.545ZM215.989 51.8862H218.214V48.5223H216.644L216.54 49.5667C216.49 50.0982 216.428 50.5595 216.352 50.9505C216.276 51.3392 216.155 51.6511 215.989 51.8862Z" fill="white"/>
<path d="M222.975 49.4184H224.422C225.032 49.4184 225.501 49.5722 225.83 49.8797C226.158 50.1872 226.323 50.5837 226.323 51.0691C226.323 51.3854 226.249 51.6698 226.102 51.9224C225.955 52.175 225.74 52.3749 225.457 52.522C225.173 52.667 224.828 52.7395 224.422 52.7395H222.245V47.6789H223.196V51.8894H224.422C224.701 51.8894 224.93 51.8159 225.11 51.6687C225.289 51.5193 225.379 51.3294 225.379 51.0987C225.379 50.8549 225.289 50.6561 225.11 50.5024C224.93 50.3464 224.701 50.2685 224.422 50.2685H222.975V49.4184ZM227.03 52.7395V47.6789H228V52.7395H227.03Z" fill="white"/>
</svg>
