<svg width="120" height="120" viewBox="0 0 120 120" fill="none" xmlns="http://www.w3.org/2000/svg">
<g opacity="0.4">
<circle opacity="0.4" cx="60" cy="60" r="45" fill="#292F4F"/>
<circle cx="60" cy="60" r="30" fill="#292F4F"/>
<circle opacity="0.2" cx="60" cy="60" r="60" fill="#292F4F"/>
</g>
<g clip-path="url(#clip0_7_80)">
<path fill-rule="evenodd" clip-rule="evenodd" d="M50.196 60C50.196 60.3777 50.5023 60.684 50.88 60.684H52.7357C53.0596 64.1675 55.8325 66.9404 59.316 67.2643V69.1199C59.316 69.4977 59.6222 69.8039 60 69.8039C60.3777 69.8039 60.684 69.4977 60.684 69.1199V67.2643C64.1675 66.9404 66.9404 64.1675 67.2643 60.684H69.1199C69.4977 60.684 69.8039 60.3777 69.8039 60C69.8039 59.6222 69.4977 59.316 69.1199 59.316H67.2643C66.9404 55.8325 64.1675 53.0596 60.684 52.7357V50.88C60.684 50.5023 60.3777 50.196 60 50.196C59.6222 50.196 59.316 50.5023 59.316 50.88V52.7357C55.8325 53.0596 53.0596 55.8325 52.7357 59.316H50.88C50.5023 59.316 50.196 59.6222 50.196 60ZM56.58 60C56.58 58.1112 58.1112 56.58 60 56.58C61.8888 56.58 63.4199 58.1112 63.4199 60C63.4199 61.8888 61.8888 63.4199 60 63.4199C58.1112 63.4199 56.58 61.8888 56.58 60Z" fill="#292F4F"/>
<path d="M57.948 60C57.948 58.8667 58.8667 57.948 60 57.948C61.1332 57.948 62.0519 58.8667 62.0519 60C62.0519 61.1332 61.1332 62.0519 60 62.0519C58.8667 62.0519 57.948 61.1332 57.948 60Z" fill="#292F4F"/>
</g>
<defs>
<clipPath id="clip0_7_80">
<rect x="50" y="50" width="20" height="20" rx="10" fill="white"/>
</clipPath>
</defs>
</svg>
